<svg width="1400" height="737" viewBox="0 0 1400 737" fill="none" xmlns="http://www.w3.org/2000/svg">
<path d="M1300 77H0V737H1400V177C1400 121.772 1355.23 77 1300 77Z" fill="#0F264C"/>
<mask id="mask0_690_116" style="mask-type:alpha" maskUnits="userSpaceOnUse" x="0" y="77" width="1400" height="660">
<path d="M1300 77H0V737H1400V177C1400 121.772 1355.23 77 1300 77Z" fill="#0F264C"/>
</mask>
<g mask="url(#mask0_690_116)">
<path opacity="0.2" d="M-216 393.609C-166.999 329.887 -37.2115 205.63 89.9269 218.375C248.85 234.305 -53.1039 533 89.9269 533C232.958 533 300.5 166.601 403.8 166.601C507.1 166.601 288.581 437.418 403.8 453.348C519.019 469.278 614.373 71.0183 741.512 67.0357C868.65 63.0531 610.4 393.609 817 393.609" stroke="url(#paint0_linear_690_116)" stroke-width="2"/>
</g>
<path d="M379.072 73.9826C377.14 65.1337 373.951 56.7656 369.7 49.0708C369.12 48.0128 368.443 46.8586 367.767 45.8005C362.839 37.6248 356.752 30.3148 349.699 23.9666C348.829 23.1009 347.863 22.3314 346.897 21.562C339.36 15.31 330.76 10.2122 321.485 6.55715C320.325 6.07623 319.166 5.6915 318.006 5.30676C308.73 2.03648 298.682 0.208971 288.343 0.0166016C287.763 0.0166016 287.087 0.0166016 286.507 0.0166016C285.927 0.0166016 285.251 0.0166016 284.671 0.0166016C274.236 0.208971 264.284 2.03648 255.008 5.30676C253.848 5.6915 252.689 6.17241 251.529 6.55715C242.254 10.2122 233.654 15.31 226.118 21.562C225.151 22.3314 224.185 23.1971 223.316 23.9666C216.262 30.3148 210.078 37.6248 205.247 45.8005C204.571 46.8586 203.991 48.0128 203.315 49.0708C199.063 56.7656 195.875 65.1337 193.942 73.9826C193.652 75.233 193.459 76.4835 193.169 77.7339C192.203 83.1202 191.72 88.6027 191.72 94.1814H381.198C381.198 88.6027 380.715 83.024 379.748 77.7339C379.555 76.4835 379.362 75.233 379.072 73.9826Z" fill="#0F264C"/>
<defs>
<linearGradient id="paint0_linear_690_116" x1="300.5" y1="177.318" x2="300.5" y2="635.71" gradientUnits="userSpaceOnUse">
<stop stop-color="#F37753"/>
<stop offset="1" stop-color="white" stop-opacity="0"/>
</linearGradient>
</defs>
</svg>
